<?xml version="1.0" encoding="UTF-8" standalone="no"?>
<svg
   viewBox="0 0 64 64"
   role="img"
   aria-label="Sam Lee"
   version="1.1"
   id="svg1"
   sodipodi:docname="favicon.svg"
   inkscape:version="1.4.2 (ebf0e940, 2025-05-08)"
   xmlns:inkscape="http://www.inkscape.org/namespaces/inkscape"
   xmlns:sodipodi="http://sodipodi.sourceforge.net/DTD/sodipodi-0.dtd"
   xmlns="http://www.w3.org/2000/svg"
   xmlns:svg="http://www.w3.org/2000/svg">
  <defs
     id="defs1">
    <inkscape:path-effect
       effect="fillet_chamfer"
       id="path-effect20"
       is_visible="true"
       lpeversion="1"
       nodesatellites_param="F,0,0,1,0,0,0,1 @ F,0,0,1,0,0,0,1 @ F,0,0,1,0,0,0,1 @ F,0,0,1,0,0,0,1 @ F,0,0,1,0,0,0,1 @ F,0,0,1,0,0,0,1 @ F,0,0,1,0,0,0,1 @ F,0,0,1,0,0,0,1 @ F,0,0,1,0,0,0,1 @ F,0,0,1,0,0,0,1 @ F,0,0,1,0,0,0,1 @ F,0,0,1,0,0,0,1 @ F,0,0,1,0,0,0,1 @ F,0,0,1,0,0,0,1 @ F,0,0,1,0,0,0,1 @ F,0,0,1,0,0,0,1 @ F,0,0,1,0,0,0,1 @ F,0,0,1,0,0,0,1 @ F,0,0,1,0,0,0,1 @ F,0,0,1,0,0,0,1 @ F,0,0,1,0,0,0,1 @ F,0,0,1,0,0,0,1 @ F,0,0,1,0,0,0,1 @ F,0,0,1,0,0,0,1 @ F,0,0,1,0,0,0,1 @ F,0,0,1,0,0,0,1 @ F,0,0,1,0,0,0,1 @ F,0,0,1,0,0,0,1 @ F,0,0,1,0,0,0,1 @ F,0,0,1,0,0,0,1 @ F,0,0,1,0,0,0,1"
       radius="0"
       unit="px"
       method="auto"
       mode="F"
       chamfer_steps="1"
       flexible="false"
       use_knot_distance="true"
       apply_no_radius="true"
       apply_with_radius="true"
       only_selected="false"
       hide_knots="false" />
  </defs>
  <sodipodi:namedview
     id="namedview1"
     pagecolor="#ffffff"
     bordercolor="#000000"
     borderopacity="0.25"
     inkscape:showpageshadow="2"
     inkscape:pageopacity="0.0"
     inkscape:pagecheckerboard="0"
     inkscape:deskcolor="#d1d1d1"
     inkscape:zoom="2.294688"
     inkscape:cx="32.466287"
     inkscape:cy="7.19052"
     inkscape:window-width="896"
     inkscape:window-height="646"
     inkscape:window-x="1816"
     inkscape:window-y="75"
     inkscape:window-maximized="0"
     inkscape:current-layer="svg1" />
  <rect
     width="64"
     height="64"
     fill="#080808"
     id="rect1" />
  <path
     style="font-weight:295;font-size:8.99655px;font-family:'.SF NS Mono';-inkscape-font-specification:'.SF NS Mono weight=295';opacity:0.8;fill:#ff747d;stroke:#000000;stroke-width:0;stroke-linecap:round;stroke-linejoin:round;fill-opacity:1"
     d="M 59.530746,47.211449 V 50.3683 H 36.439284 V 13.631705 h 3.743071 v 33.579744 z"
     id="path6" />
  <path
     style="font-weight:295;font-size:8.99655px;font-family:'.SF NS Mono';-inkscape-font-specification:'.SF NS Mono weight=295';opacity:0.8;fill:#ff747d;stroke:#000000;stroke-width:0;stroke-linecap:round;stroke-linejoin:round;fill-opacity:1"
     d="m 32.392134,60.418647 h 0.639485 c 0.04357,0.35829 0.214718,0.640788 0.513455,0.847494 0.301849,0.206706 0.687718,0.310059 1.157606,0.310059 0.482337,0 0.868206,-0.106109 1.157607,-0.318327 0.289402,-0.214974 0.434103,-0.49885 0.434103,-0.851628 0,-0.286632 -0.110471,-0.520898 -0.331412,-0.702799 -0.220941,-0.184657 -0.572579,-0.332108 -1.054915,-0.442351 l -0.527459,-0.119889 c -0.631705,-0.146072 -1.093814,-0.3514 -1.386327,-0.615983 -0.289402,-0.267339 -0.434103,-0.614605 -0.434103,-1.041798 0,-0.325217 0.08869,-0.607715 0.266063,-0.847493 0.177375,-0.239779 0.426323,-0.425815 0.746844,-0.558106 0.32052,-0.132292 0.697053,-0.198438 1.129599,-0.198438 0.407652,0 0.76707,0.06615 1.078255,0.198438 0.311185,0.129535 0.558577,0.312814 0.742176,0.549837 0.183599,0.237023 0.28629,0.515387 0.308072,0.835092 h -0.639484 c -0.04667,-0.336241 -0.20071,-0.598069 -0.462109,-0.785483 -0.261395,-0.187413 -0.603698,-0.281119 -1.02691,-0.281119 -0.466777,0 -0.832418,0.09646 -1.096925,0.289388 -0.261395,0.190169 -0.392093,0.456131 -0.392093,0.797884 0,0.278364 0.105803,0.50574 0.317408,0.682129 0.211606,0.173633 0.550798,0.314193 1.017575,0.42168 l 0.546129,0.128158 c 0.656599,0.151584 1.129599,0.359668 1.419001,0.624251 0.289402,0.264584 0.434103,0.620118 0.434103,1.066602 0,0.338998 -0.09336,0.635276 -0.280066,0.888835 -0.186711,0.250803 -0.448106,0.446485 -0.784185,0.587045 -0.33608,0.140559 -0.729729,0.210839 -1.180947,0.210839 -0.669047,0 -1.212064,-0.150206 -1.629051,-0.450618 -0.413876,-0.300412 -0.641041,-0.708312 -0.681495,-1.223699 z"
     id="text1"
     inkscape:path-effect="#path-effect20"
     inkscape:original-d="m 32.392134,60.418647 h 0.639485 q 0.06535,0.537435 0.513455,0.847494 0.452774,0.310059 1.157606,0.310059 0.723505,0 1.157607,-0.318327 0.434103,-0.322461 0.434103,-0.851628 0,-0.429948 -0.331412,-0.702799 -0.331411,-0.276986 -1.054915,-0.442351 l -0.527459,-0.119889 q -0.947557,-0.219108 -1.386327,-0.615983 -0.434103,-0.401009 -0.434103,-1.041798 0,-0.487826 0.266063,-0.847493 0.266063,-0.359669 0.746844,-0.558106 0.48078,-0.198438 1.129599,-0.198438 0.611478,0 1.078255,0.198438 0.466778,0.194303 0.742176,0.549837 0.275399,0.355534 0.308072,0.835092 h -0.639484 q -0.07001,-0.504362 -0.462109,-0.785483 -0.392092,-0.281119 -1.02691,-0.281119 -0.700165,0 -1.096925,0.289388 -0.392093,0.285254 -0.392093,0.797884 0,0.417546 0.317408,0.682129 0.317409,0.260449 1.017575,0.42168 l 0.546129,0.128158 q 0.984898,0.227376 1.419001,0.624251 0.434103,0.396876 0.434103,1.066602 0,0.508497 -0.280066,0.888835 -0.280067,0.376205 -0.784185,0.587045 -0.50412,0.210839 -1.180947,0.210839 -1.00357,0 -1.629051,-0.450618 -0.620814,-0.450618 -0.681495,-1.223699 z"
     transform="matrix(5.8963387,0,0,6.1581458,-185.8572,-331.24547)" />
</svg>
